<?xml version="1.0" encoding="UTF-8"?>
<svg version="1.1" viewBox="0 0 2048 1932" width="1280" height="1280" xmlns="http://www.w3.org/2000/svg">
<path transform="translate(0)" d="m0 0h2048v1932h-2048z" fill="#FEFEFE"/>
<path transform="translate(1413,670)" d="m0 0h4l2 19 3 2 12 1 6 2v-6l4 1 12 7 7 2-2-9-4-10h3l5 6 6 13 1 8 15-9 2 2-8 11v3l14 7 7-1 3-2 5 1-3 10-5 8-1 4 4 2 3 1 4-2h6l-3 10-14 16 1 4 6 5-2 4-2 1h-6l2 5 1 1v5l-5 2 1 8-12 7-9 10-3 4 1 4 1 6-6 2-3 5-8 3-1 2v14l18 13 16 11 13 8 15 9 11 9 7 8 9 14 8 16 9 16 14 20 6 9 15 27 8 11 11 12 8 10 6 12 17 43 15 37 7 16 8 15 2 7v9l-5 12-12 23-11 19-6 7-12 5-19 6-14 3h-23l-16-4-13-5-10-5 4 19 1 9v19l-4 57 1 15 3 10 1 7-5 4-9 3-3 4-2 15-8 37-8 49-4 35v12l2 34v35l-6 39-12 69-3 18v7l13 10 12 11 1 9 4 2 10 8 5 6-1 11-4 6-4 2-17 2h-40l-27-3-1-1 2-37 1-10 6-13 2-11 1-12 1-28v-32l-2-25-3-23-1-5v-19l4-24 2-6 1-9v-11l-3-27-1-15-1-107h-9l-1-2 2-9 1-10v-11l-2-16-4-15-3-5-3 4-4 11-2 9-1 11v12l1 9v9l-7 9-2 14-3 32-1 72-2 14-2 5v37l1 41-2 41-1 15v28l3 22 4 17 5 12 6 11 1 5v40l-5 5-2 1h-76l-8-4-5-6-1-3v-8l4-8 7-6 10-7 2-10 8-6 13-7 2-5-1-12-11-50-6-28-5-33-1-11v-36l3-28v-45l-5-34-14-70-4-5-9-3-3-3v-13l1-11v-18l-1-8-12 6-6-1-5-6-8-5-5-6-2-5v-9l6-28 2-17 1-15v-35l-1-41v-32l3-22 7-25 1-7 1-23 1-11-5-5-11-8-1-3 21-63 12-47 6-18 6-8 10-7 15-6 12-5 8-5 9-10 10-6 9-2-1-20-3-6-14 1v-12l-6-9-6-5-8-4-5-2 2-6 4-6-11-2-8-3 2-4 7-7 1-6-11-9-8-7-2-4v-3l13 3 8-1 2-4 3-4-1-7-5-8-4-10v-13l5 2 15 10 1-1-3-24-1-5 4 2 9 7 5 2 15-1 4-1 1-5 2-8 3-6z"/>
<path transform="translate(896,308)" d="m0 0 5 1 1 3 1 23 3-5 5-12 5-5h4l1 4v27l-2 15-4 14v3l6-4 5-2 1 1v8l-4 12-5 10-8 10-9 7-11 5-17 7-24 13-10 6-14 10-16 12-7 9v5l5 2 18 2 13 3 10 5 10 9 9 6 16 8 8 6 4 4v2l-44 1-10 3-16 6-36 10-23 5-2 6-2 20v42l-3 25-2 15v46l-1 16-4 18-6 12-4 4-4-1-2-4h-3l-4 10-7 11-7 8-12 7-13 2-1 3-11 9-9 6-6 3-7-1h-4l-10 9-11 7-6-4 1-7 8-11v-2l-8 7-14 12-8 6-5-3-1-1 1-7 7-10 11-13 3-4-1-1-9 7-10 10-11 9-5 1-1-1 1-9 7-12 11-16 2-5-7 4-7 5h-5l-1-4 8-24h-6l-2-1v-7l3-12v-4l-6-3 1-9 1-5v-8l-2-1-1-6 3-6v-7l-5-5 3-12 1-7v-6l5-11-3-6 1-5 4-7 2-10 3-7 4-5v-5l-2-2v-5l8-12 2-13 7-10-1-1-9-1h-10l-18 3-42 10-24 5h-14l-12-8-1-4 5-10 6-10 9-7 12-5 13-3 29-4 46-9 15-5 23-10 4-2 4-8 5-3 3-7 5-3 4-9 9-6 4-9 9-5 6-9 12-7 8-9 8-3 6-8 9-5 8-2 8-8 5-2 12-1 4-8 6-4h9l5 2 1-13 4-6 2-2 6 1 5 5 8 10 3 1v-25l4-11 5-4 5-1 3 4 8 28 3 3v-16l3-17 5-13 4-6 5-4 4 1 2 4 1 14v22h2l4-20 5-16 7-13z"/>
<path transform="translate(271,338)" d="m0 0 4 2-1 7 6-7 3 1-1 9 4-2 1-2 4 1-1 8 5 2v7l-6 35-4 12-7 14-3 4 1 2h13l5 6 1 5v20l-3 5-2 2-6 1 1 8-8 5-9 4-5 1h-9l-6-3-3-4-2-12-13 9-13 6-13 4-25 5-5-2-3-2-7-2-1-2v-7l7-7 13-10 15-13 7-7 3-4-1-7-6-10-3-10 2-1 21 7 4-1 9-12 6-14 6-7 3-12v-5l4-2v2l2-1 2-22 4 1 4 8 2 1 1-9z"/>
<path transform="translate(648,38)" d="m0 0 4 3-2 7 4-4 3-4 4 1v2l6 2 3 7-1 6 1 3v19l-2 13-1 6 9-4h8l7 6 4 9-1 9-4 7-8 7-10 5-8 2h-6l-6-3-3 1-2 4-6 1v-8l-5 1-21 6-17 3h-39l-1-1v-6l20-2 16-8 14-11 11-10 1-2 2-17 4-27 5-2 2-15 1-2 4 1 5 5 2-7z"/>
<path transform="translate(774,94)" d="m0 0h4v8l-4 12-2 3 6-2 4-3h3l-1 7-3 8-10 43-5 10-9 13v1h9l13-3 13-9 5-2h5l1 4-5 6v6l1 4-3 6-11 10-13 8-10 4-14 3h-11l-1-1 1-10 1-3-5-4-7-4-6-1-34 3-5 1h-10l-16-3-2-4 9-4h7l6 2h10l10-5 1-7 11-8 8-2 11-2 6-9 17-34 9-22 3-10 4-5 7-4z"/>
<path transform="translate(1522,1030)" d="m0 0 6 1 6 5 9 11 8 8 7 5 6-2 6-3 6 2 6 7 10 19 30 45-1 3-25-6-7-1h-15l-10 2-12 5-14 9-6 3-2-5-3-14-3-24-1-14z" fill="#FEFEFE"/>
<path transform="translate(536,292)" d="m0 0 5 3 3 10v10l-8 19-5 13-5 7-2 6v8l3 11 4 8 12 6 1 4-15 15-14 5-16 3-7-1-15-5-6-3 1-5 9-13 2-4v-11l-6-5-8-6-19-19-8-10-9-12-2-5 1-9 1-2 4 1 7 14 8 7 20 9 6 3 3-1 4-9 2-1 11 6 6 5 12-18 9-10 7-6 2-8v-8z"/>
<path transform="translate(1111,353)" d="m0 0h9l16 3 12 5 23 13 2 2v3l-5 2 1 3 19 9 4 5v10l-5 4-15 4h-9l-2 5-6-1-4-3-4 1h-4l-3-2-1-6 3-5 1-6-3-3-7-1-2 12-4 12-8 6-5-1-1-2-4 2-4-1 1-17-5 7-3-1 1-11-1-3v-7l3-12-11-1-1-2 3-5 8-7 9-10z"/>
<path transform="translate(1158,1343)" d="m0 0 7 2 5 4 1 4-1 1-1 65-5 7-6 1-4-9v-3l-27 3h-7l-2 6-5-1-1-11 1-32v-22l-2-5-1-3h11l32-6z"/>
<path transform="translate(984,78)" d="m0 0h8l11 4 8 6 10 11 8 13 5 16v7l-3 2-7-6-3-3-2-1 3 7 8 10 6 7 2 4-1 5-4 4h-9l-11-9-6-5h-5l-4 6-3 1-5-6-1-2v-7l6-5-5-5-14-10-12-7-3-1-14-1-2-1 2-5 7-7 6-4 9-4-1-11 6-1 8-1z"/>
<path transform="translate(1113,1721)" d="m0 0h7l6 4-1 4-9 9-1 4 6 11v4l25-3 37-4h7l6 4v3l-23 1-22 3h-6l1 6-2 4 14-3 17-2 8 1 5 4-1 5-2 5-5 25-6 12-4 3-6-1-9-11v-2l13 1 4-8 3-12 1-15h-9l1 8-9 11-17 17-11 6-4-1 5-5 12-11 9-10 6-11v-2l-8 1-2 6-9 10-8 6-5 3h-5l2-4 11-9 7-9v-3l-6 1-13 8-6 1 2-4 11-8 7-10h-8l-7-2-2 6-3 1-4-2v-2l-5-2-2-5 8 1-2-9-3-10 4-11-11 2v39l-2 32-1 9-4 2-4-5v-8l2-14 1-16v-38l-3-2v-4l4-1h7z"/>
<path transform="translate(1455,987)" d="m0 0 10 1 5 4 2 7v64l-3 6-7 3h-19l-4-2-4-6v-32l2-38 2-4 10-2z" fill="#FEFEFE"/>
<path transform="translate(1134,1459)" d="m0 0 6 2 7 4-1 4-15 14-7 7-6 4 48-6 11-1 9 6 2 2-1 4-2 4-3 35-2 11-5 9-5 4-4 1-5-5-8-12v-2l15 3 3-11 1-12 1-29-37 3-29 4v49l-2 4-5-1-1-1-2-46-2-2-1-11h6l1 1h9l3-3 9-11 8-13z"/>
<path transform="translate(1127,1615)" d="m0 0 5 1-1 5-5 2-5 1-1 7 10-1 1 5-2 2-11 2v6h14l3 1-1 4-4 2-12 2-6 16-7 10-7 7-5 3h-5l2-4 7-6 7-11 4-9v-3l-12 4h-7l-5-2v-3l10-3 15-4 1-1 1-7-5 1h-9l-2-1v-2l14-4 1-1v-6l-6-1-8-1v-4l12-3 11-2z"/>
<path transform="translate(1410,990)" d="m0 0h2l1 2 1 65 3 8-1 5-2 2-8 1h-9v-8l4-9v-15l-1-28-3-7 1-6 10-9z" fill="#FEFEFE"/>
<path transform="translate(1166,1712)" d="m0 0 5 2 4 3-4 19-2 10-2 2-8-1-12 2h-5l-3-21-2-9v-3l19-2z"/>
<path transform="translate(1447,998)" d="m0 0 10 1 5 5 1 21v25l-2 10-2 2h-8l-4-1-1-2-1-34v-26z"/>
<path transform="translate(1150,1351)" d="m0 0h8v26l-30 4h-7v-24l5-2z" fill="#FEFEFE"/>
<path transform="translate(1156,1383)" d="m0 0 3 1v15l-1 10-29 2h-8v-23l10-2z" fill="#FEFEFE"/>
<path transform="translate(1183,1606)" d="m0 0 6 1 5 4v5l-1 1-1 61-2 7-5 5-5-2-7-8-3-3v-3l9 1 4-1v-60l-2-1-16 3h-2l-1-5 16-4z"/>
<path transform="translate(1142,1508)" d="m0 0h9l4 4-2 9-3 13-1 1-20 3-2 2h-3l-2-7-2-16-1-3-2-2 1-1 20-2z"/>
<path transform="translate(1149,1611)" d="m0 0h7l4 5-1 5v38l-1 18-4 7-3 2-4-3v-2l-4-2-4-4 1-3 9 1 1-5v-50l-2-1-7 2h-5l1-5z"/>
<path transform="translate(1317,1201)" d="m0 0 4 2 11 12-1 5-13 44-2 5h-2l-1-3v-24z" fill="#FEFEFE"/>
<path transform="translate(1135,1514)" d="m0 0h8v14l-5 2h-10v-14z" fill="#FEFEFE"/>
<path transform="translate(1131,1589)" d="m0 0 5 1 3 3-1 4-14 14-4 1 2-5 5-9 3-8z"/>
<path transform="translate(1155,1719)" d="m0 0h10v7l-16 4-3-1v-9z" fill="#FEFEFE"/>
<path transform="translate(1145,1646)" d="m0 0h2l-1 6-8 9-6 4-4-1-3-3v-3l10-4 9-7z"/>
<path transform="translate(1179,1642)" d="m0 0 3 1-3 6-8 9-4 5-5-2-2-4 5-4 13-10z"/>
<path transform="translate(1099,1598)" d="m0 0 7 1 6 4 2 4-1 5-1 1h-5l-7-10z"/>
<path transform="translate(1162,1732)" d="m0 0h2l-1 9-5 1h-11l-1-5 1-2z" fill="#FEFEFE"/>
<path transform="translate(1164,1626)" d="m0 0 7 2 4 4-1 5-4 1-7-5-2-5z"/>
<path transform="translate(1136,1627)" d="m0 0 9 3 2 2v6h-6l-7-8z"/>
</svg>
