<?xml version="1.0" encoding="utf-8"?>
<!-- Generator: Adobe Illustrator 27.8.1, SVG Export Plug-In . SVG Version: 6.00 Build 0)  -->
<svg version="1.1" id="レイヤー_1" xmlns="http://www.w3.org/2000/svg" xmlns:xlink="http://www.w3.org/1999/xlink" x="0px"
	 y="0px" viewBox="0 0 600.05 600.05" style="enable-background:new 0 0 600.05 600.05;" xml:space="preserve">
<path d="M598.92,274.28c-6.88-79.83-44.43-152.22-105.75-203.81C431.86,18.88,354.12-5.74,274.28,1.13
	C194.45,8.01,122.07,45.56,70.47,106.88C18.88,168.19-5.74,245.93,1.13,325.77c6.88,79.84,44.43,152.22,105.75,203.81
	c54.57,45.92,122.15,70.47,192.64,70.47c8.71,0,17.47-0.38,26.25-1.13c79.84-6.88,152.22-44.43,203.81-105.75
	C581.17,431.86,605.79,354.12,598.92,274.28z M282.38,278.38c-1.31,7.22-2.37,13.03-3.32,17.23
	c-20.66,38.24-53.24,64.47-84.19,82.04c-9.4-30.68-13.76-64.91-12.6-99.42c1.22-36.36,8.53-73.31,21.16-106.86
	c27.49-73.03,76.87-125.67,139.06-148.21c21.84,3.31,43.12,9.2,63.49,17.55C315.02,99.14,292.38,223.46,282.38,278.38z
	 M378.66,90.62c59.92,22.34,104.78,72.31,131.88,110.34c32.96,46.26,57.57,100.34,65.84,144.69c-5.68,34.76-17.91,68.06-36.21,98.42
	c-9-67.49-44.83-126.1-75.1-165c-37.57-48.29-87.36-92.2-130.72-115.43C345.2,137.88,359.51,112.35,378.66,90.62z M578.99,276
	c0.3,3.51,0.52,7.01,0.69,10.51c-12.77-32.69-31.09-66.62-52.85-97.16c-27.49-38.58-72.45-88.81-132.95-114.19
	c10.19-9.24,21.52-17.46,34.14-24.26c18.46,9.53,35.98,21.18,52.26,34.88C537.52,133.93,572.58,201.48,578.99,276z M276,21.06
	c8.2-0.71,16.37-1.06,24.5-1.06c0.42,0,0.84,0.01,1.27,0.01c-21.44,12.16-41.11,27.96-58.72,47.27
	c-24.64,27.02-44.27,59.67-58.34,97.05c-27.29,72.5-30.09,153.47-7.83,222.72c-5.8,2.78-11.44,5.27-16.81,7.47
	c-23.14,9.48-45.88,15.69-66,19.22C74.1,357.68,68.31,291.01,78.25,230.09c12.24-75.04,47.4-138.36,101.69-183.15
	C209.75,32.81,242.15,23.97,276,21.06z M85.78,119.75c7.65-9.09,15.78-17.61,24.36-25.55c-26.01,38.32-43.54,83.11-51.63,132.67
	C48.28,289.6,53.9,358.18,73.86,416.5c-10.88,1.04-20.5,1.17-28.37,0.53c-13.29-28.96-21.61-60.3-24.43-92.98
	C14.64,249.53,37.63,176.98,85.78,119.75z M55.89,437.4c27.22-0.03,67.57-6.26,111.76-24.38c39.69-16.27,92.74-46.8,124.88-100.68
	c29.25,16.18,52.1,39.43,69.44,62.83c-27.23,52.65-142.08,132.16-246.39,135.51C91.35,489.48,71.28,464.72,55.89,437.4z
	 M138.72,528.91c45.03-5.53,93.77-23.1,139.73-50.63c42.45-25.43,78.09-57.1,96-84.87c5.16,8.17,9.67,16.13,13.53,23.56
	c8.49,16.31,15.71,33.58,21.45,50.97c-24.59,45.95-92.47,89.57-165.68,106.49C206.19,566.78,170.53,551.4,138.72,528.91z
	 M324.05,578.99c-8.2,0.71-16.37,1.06-24.5,1.06c-1.98,0-3.96-0.02-5.94-0.06c21.59-8.27,42.44-18.63,61.12-30.52
	c26.42-16.82,47.54-35.86,62.07-55.8c4.84,19.89,7.57,39.4,7.85,57.25C393.6,566.32,359.62,575.93,324.05,578.99z M444.26,540.16
	c-2.51-42.13-16.24-89.59-38.53-132.43c-19.17-36.84-52.87-85.8-105.82-114.17c0.66-3.38,1.36-7.25,2.15-11.61
	c4.31-23.66,11.09-60.88,24.99-99.53c40.52,22.26,86.9,63.5,122.25,108.93c58.09,74.66,71.73,137.96,72.94,177.92
	c0.01,0.34,0.04,0.67,0.08,1c-2.6,3.39-5.27,6.73-8.04,10.02C494.05,504.33,470.4,524.43,444.26,540.16z"/>
</svg>
